<?xml version="1.0" encoding="utf-8" standalone="no"?>
<!DOCTYPE svg PUBLIC "-//W3C//DTD SVG 1.1//EN"
  "http://www.w3.org/Graphics/SVG/1.1/DTD/svg11.dtd">
<svg xmlns:xlink="http://www.w3.org/1999/xlink" width="1152pt" height="216pt" viewBox="0 0 1152 216" xmlns="http://www.w3.org/2000/svg" version="1.1">
 <metadata>
  <rdf:RDF xmlns:dc="http://purl.org/dc/elements/1.1/" xmlns:cc="http://creativecommons.org/ns#" xmlns:rdf="http://www.w3.org/1999/02/22-rdf-syntax-ns#">
   <cc:Work>
    <dc:type rdf:resource="http://purl.org/dc/dcmitype/StillImage"/>
    <dc:date>2026-07-16T14:10:20.251066</dc:date>
    <dc:format>image/svg+xml</dc:format>
    <dc:creator>
     <cc:Agent>
      <dc:title>Matplotlib v3.11.0, https://matplotlib.org/</dc:title>
     </cc:Agent>
    </dc:creator>
   </cc:Work>
  </rdf:RDF>
 </metadata>
 <defs>
  <style type="text/css">*{stroke-linejoin: round; stroke-linecap: butt}</style>
 </defs>
 <g id="figure_1">
  <g id="patch_1">
   <path d="M 0 216 
L 1152 216 
L 1152 0 
L 0 0 
z
" style="fill: #ffffff"/>
  </g>
  <g id="axes_1">
   <g id="patch_2">
    <path d="M 10.8 178.648922 
L 1141.2 178.648922 
L 1141.2 37.351078 
L 10.8 37.351078 
z
" clip-path="url(#p0668411bb5)" style="fill: url(#hd95a5f63ff); stroke: #000000; stroke-width: 1.6; stroke-linejoin: miter"/>
   </g>
   <g id="patch_3">
    <path d="M 78.926848 171.079395 
L 78.926848 44.920605 
L 1073.073164 44.920605 
L 1073.073164 171.079395 
z
" clip-path="url(#p0668411bb5)" style="fill: #d6b98d; stroke: #333333; stroke-linejoin: miter"/>
   </g>
   <g id="patch_4">
    <path d="M 78.926848 171.07891 
L 78.926848 44.92109 
L 1073.073164 44.92109 
L 1073.073164 171.07891 
z
" clip-path="url(#p0668411bb5)" style="fill: #d6b98d; stroke: #333333; stroke-linejoin: miter"/>
   </g>
   <g id="patch_5">
    <path d="M 73.880275 124.400893 
L 73.44215 124.362559 
L 73.017363 124.248722 
L 72.61877 124.062841 
L 72.258495 123.810567 
L 71.947454 123.499571 
L 71.695226 123.139282 
L 71.509329 122.740673 
L 71.395462 122.315826 
L 71.357143 121.877685 
L 71.357143 94.122322 
L 71.395462 93.684167 
L 71.509329 93.259327 
L 71.695226 92.860711 
L 71.947454 92.500429 
L 72.258495 92.189426 
L 72.61877 91.937152 
L 73.017363 91.75127 
L 73.44215 91.637434 
L 73.880275 91.599107 
L 1078.119846 91.599107 
L 1078.55785 91.637434 
L 1078.982758 91.75127 
L 1079.38123 91.937152 
L 1079.741626 92.189426 
L 1080.052546 92.500429 
L 1080.305017 92.860711 
L 1080.490793 93.259327 
L 1080.604538 93.684167 
L 1080.642857 94.122322 
L 1080.642857 121.877685 
L 1080.604538 122.315826 
L 1080.490793 122.740673 
L 1080.305017 123.139282 
L 1080.052546 123.499571 
L 1079.741626 123.810567 
L 1079.38123 124.062841 
L 1078.982758 124.248722 
L 1078.55785 124.362559 
L 1078.119846 124.400893 
z
" clip-path="url(#p0668411bb5)" style="fill: #bda87c; stroke: #000000; stroke-width: 1.6; stroke-linejoin: miter"/>
   </g>
  </g>
 </g>
 <defs>
  <clipPath id="p0668411bb5">
   <rect x="10.8" y="37.351078" width="1130.4" height="141.297844"/>
  </clipPath>
 </defs>
 <defs>
  <pattern id="hd95a5f63ff" patternUnits="userSpaceOnUse" x="0" y="0" width="72" height="72">
   <rect x="0" y="0" width="73" height="73" fill="#ffece6"/>
   <path d="M -36 36 
L 36 -36 
M -33 39 
L 39 -33 
M -30 42 
L 42 -30 
M -27 45 
L 45 -27 
M -24 48 
L 48 -24 
M -21 51 
L 51 -21 
M -18 54 
L 54 -18 
M -15 57 
L 57 -15 
M -12 60 
L 60 -12 
M -9 63 
L 63 -9 
M -6 66 
L 66 -6 
M -3 69 
L 69 -3 
M 0 72 
L 72 0 
M 3 75 
L 75 3 
M 6 78 
L 78 6 
M 9 81 
L 81 9 
M 12 84 
L 84 12 
M 15 87 
L 87 15 
M 18 90 
L 90 18 
M 21 93 
L 93 21 
M 24 96 
L 96 24 
M 27 99 
L 99 27 
M 30 102 
L 102 30 
M 33 105 
L 105 33 
M 36 108 
L 108 36 
" style="fill: #000000; stroke: #000000; stroke-width: 1.0; stroke-linecap: butt; stroke-linejoin: miter"/>
  </pattern>
 </defs>
</svg>
